<svg width="375" height="812" viewBox="0 0 375 812" fill="none" xmlns="http://www.w3.org/2000/svg" xmlns:xlink="http://www.w3.org/1999/xlink">
<rect width="375" height="812" rx="32" fill="black"/>
<rect width="375" height="812" rx="32" fill="url(#pattern0_12_163)" fill-opacity="0.5"/>
<path d="M57.0511 180.727L51.4261 201.625H48.2983L53.9233 180.727H57.0511ZM66.4027 180.727L60.7777 201.625H57.6499L63.2749 180.727H66.4027ZM68.2202 199V181.545H79.777V184.588H71.9105V188.747H79.0099V191.79H71.9105V199H68.2202ZM85.9496 181.545V199H82.2592V181.545H85.9496ZM103.585 181.545V199H100.398L92.804 188.014H92.6761V199H88.9858V181.545H92.2244L99.7585 192.523H99.9119V181.545H103.585ZM112.822 199H106.634V181.545H112.873C114.629 181.545 116.14 181.895 117.407 182.594C118.674 183.287 119.648 184.284 120.33 185.585C121.018 186.886 121.362 188.443 121.362 190.256C121.362 192.074 121.018 193.636 120.33 194.943C119.648 196.25 118.668 197.253 117.39 197.952C116.117 198.651 114.594 199 112.822 199ZM110.325 195.838H112.668C113.759 195.838 114.677 195.645 115.421 195.259C116.171 194.866 116.734 194.261 117.109 193.443C117.489 192.619 117.68 191.557 117.68 190.256C117.68 188.966 117.489 187.912 117.109 187.094C116.734 186.276 116.174 185.673 115.43 185.287C114.685 184.901 113.768 184.707 112.677 184.707H110.325V195.838ZM125.048 199.222C124.485 199.222 124.002 199.023 123.599 198.625C123.201 198.222 123.002 197.739 123.002 197.176C123.002 196.619 123.201 196.142 123.599 195.744C124.002 195.347 124.485 195.148 125.048 195.148C125.593 195.148 126.07 195.347 126.479 195.744C126.888 196.142 127.093 196.619 127.093 197.176C127.093 197.551 126.996 197.895 126.803 198.207C126.616 198.514 126.369 198.761 126.062 198.949C125.755 199.131 125.417 199.222 125.048 199.222ZM146.182 190.273C146.182 192.176 145.821 193.795 145.099 195.131C144.384 196.466 143.406 197.486 142.168 198.19C140.935 198.889 139.548 199.239 138.009 199.239C136.457 199.239 135.065 198.886 133.832 198.182C132.599 197.477 131.625 196.457 130.909 195.122C130.193 193.787 129.835 192.17 129.835 190.273C129.835 188.369 130.193 186.75 130.909 185.415C131.625 184.08 132.599 183.062 133.832 182.364C135.065 181.659 136.457 181.307 138.009 181.307C139.548 181.307 140.935 181.659 142.168 182.364C143.406 183.062 144.384 184.08 145.099 185.415C145.821 186.75 146.182 188.369 146.182 190.273ZM142.44 190.273C142.44 189.04 142.256 188 141.886 187.153C141.523 186.307 141.009 185.665 140.344 185.227C139.679 184.79 138.901 184.571 138.009 184.571C137.116 184.571 136.338 184.79 135.673 185.227C135.009 185.665 134.491 186.307 134.122 187.153C133.759 188 133.577 189.04 133.577 190.273C133.577 191.506 133.759 192.545 134.122 193.392C134.491 194.239 135.009 194.881 135.673 195.318C136.338 195.756 137.116 195.974 138.009 195.974C138.901 195.974 139.679 195.756 140.344 195.318C141.009 194.881 141.523 194.239 141.886 193.392C142.256 192.545 142.44 191.506 142.44 190.273ZM163.515 181.545V199H160.327L152.734 188.014H152.606V199H148.915V181.545H152.154L159.688 192.523H159.842V181.545H163.515ZM166.564 199V181.545H170.254V195.957H177.737V199H166.564ZM195.541 190.273C195.541 192.176 195.18 193.795 194.459 195.131C193.743 196.466 192.766 197.486 191.527 198.19C190.294 198.889 188.908 199.239 187.368 199.239C185.817 199.239 184.425 198.886 183.192 198.182C181.959 197.477 180.984 196.457 180.268 195.122C179.553 193.787 179.195 192.17 179.195 190.273C179.195 188.369 179.553 186.75 180.268 185.415C180.984 184.08 181.959 183.062 183.192 182.364C184.425 181.659 185.817 181.307 187.368 181.307C188.908 181.307 190.294 181.659 191.527 182.364C192.766 183.062 193.743 184.08 194.459 185.415C195.18 186.75 195.541 188.369 195.541 190.273ZM191.8 190.273C191.8 189.04 191.615 188 191.246 187.153C190.882 186.307 190.368 185.665 189.703 185.227C189.038 184.79 188.26 184.571 187.368 184.571C186.476 184.571 185.697 184.79 185.033 185.227C184.368 185.665 183.851 186.307 183.482 187.153C183.118 188 182.936 189.04 182.936 190.273C182.936 191.506 183.118 192.545 183.482 193.392C183.851 194.239 184.368 194.881 185.033 195.318C185.697 195.756 186.476 195.974 187.368 195.974C188.26 195.974 189.038 195.756 189.703 195.318C190.368 194.881 190.882 194.239 191.246 193.392C191.615 192.545 191.8 191.506 191.8 190.273ZM200.299 199H196.344L202.37 181.545H207.126L213.143 199H209.188L204.816 185.534H204.68L200.299 199ZM200.052 192.139H209.393V195.02H200.052V192.139ZM221.431 199H215.244V181.545H221.482C223.238 181.545 224.749 181.895 226.016 182.594C227.283 183.287 228.258 184.284 228.94 185.585C229.627 186.886 229.971 188.443 229.971 190.256C229.971 192.074 229.627 193.636 228.94 194.943C228.258 196.25 227.278 197.253 225.999 197.952C224.727 198.651 223.204 199 221.431 199ZM218.934 195.838H221.278C222.369 195.838 223.286 195.645 224.031 195.259C224.781 194.866 225.343 194.261 225.718 193.443C226.099 192.619 226.289 191.557 226.289 190.256C226.289 188.966 226.099 187.912 225.718 187.094C225.343 186.276 224.783 185.673 224.039 185.287C223.295 184.901 222.377 184.707 221.286 184.707H218.934V195.838Z" fill="#D9D9D9"/>
<path d="M60.4545 263.455L71.7045 298.818H72.1364L83.4091 263.455H94.3182L78.2727 310H65.5909L49.5227 263.455H60.4545ZM99.2102 310.591C97.7102 310.591 96.4223 310.061 95.3466 309C94.286 307.924 93.7557 306.636 93.7557 305.136C93.7557 303.652 94.286 302.379 95.3466 301.318C96.4223 300.258 97.7102 299.727 99.2102 299.727C100.665 299.727 101.938 300.258 103.028 301.318C104.119 302.379 104.665 303.652 104.665 305.136C104.665 306.136 104.407 307.053 103.892 307.886C103.392 308.705 102.733 309.364 101.915 309.864C101.097 310.348 100.195 310.591 99.2102 310.591ZM122.636 263.455V310H112.795V263.455H122.636ZM136.21 310.591C134.71 310.591 133.422 310.061 132.347 309C131.286 307.924 130.756 306.636 130.756 305.136C130.756 303.652 131.286 302.379 132.347 301.318C133.422 300.258 134.71 299.727 136.21 299.727C137.665 299.727 138.938 300.258 140.028 301.318C141.119 302.379 141.665 303.652 141.665 305.136C141.665 306.136 141.407 307.053 140.892 307.886C140.392 308.705 139.733 309.364 138.915 309.864C138.097 310.348 137.195 310.591 136.21 310.591ZM175.045 276.841C174.864 275.008 174.083 273.583 172.705 272.568C171.326 271.553 169.455 271.045 167.091 271.045C165.485 271.045 164.129 271.273 163.023 271.727C161.917 272.167 161.068 272.78 160.477 273.568C159.902 274.356 159.614 275.25 159.614 276.25C159.583 277.083 159.758 277.811 160.136 278.432C160.53 279.053 161.068 279.591 161.75 280.045C162.432 280.485 163.22 280.871 164.114 281.205C165.008 281.523 165.962 281.795 166.977 282.023L171.159 283.023C173.189 283.477 175.053 284.083 176.75 284.841C178.447 285.598 179.917 286.53 181.159 287.636C182.402 288.742 183.364 290.045 184.045 291.545C184.742 293.045 185.098 294.765 185.114 296.705C185.098 299.553 184.371 302.023 182.932 304.114C181.508 306.189 179.447 307.803 176.75 308.955C174.068 310.091 170.833 310.659 167.045 310.659C163.288 310.659 160.015 310.083 157.227 308.932C154.455 307.78 152.288 306.076 150.727 303.818C149.182 301.545 148.371 298.735 148.295 295.386H157.818C157.924 296.947 158.371 298.25 159.159 299.295C159.962 300.326 161.03 301.106 162.364 301.636C163.712 302.152 165.235 302.409 166.932 302.409C168.598 302.409 170.045 302.167 171.273 301.682C172.515 301.197 173.477 300.523 174.159 299.659C174.841 298.795 175.182 297.803 175.182 296.682C175.182 295.636 174.871 294.758 174.25 294.045C173.644 293.333 172.75 292.727 171.568 292.227C170.402 291.727 168.97 291.273 167.273 290.864L162.205 289.591C158.28 288.636 155.182 287.144 152.909 285.114C150.636 283.083 149.508 280.348 149.523 276.909C149.508 274.091 150.258 271.629 151.773 269.523C153.303 267.417 155.402 265.773 158.068 264.591C160.735 263.409 163.765 262.818 167.159 262.818C170.614 262.818 173.629 263.409 176.205 264.591C178.795 265.773 180.811 267.417 182.25 269.523C183.689 271.629 184.432 274.068 184.477 276.841H175.045ZM197.21 310.591C195.71 310.591 194.422 310.061 193.347 309C192.286 307.924 191.756 306.636 191.756 305.136C191.756 303.652 192.286 302.379 193.347 301.318C194.422 300.258 195.71 299.727 197.21 299.727C198.665 299.727 199.938 300.258 201.028 301.318C202.119 302.379 202.665 303.652 202.665 305.136C202.665 306.136 202.407 307.053 201.892 307.886C201.392 308.705 200.733 309.364 199.915 309.864C199.097 310.348 198.195 310.591 197.21 310.591ZM210.795 310V263.455H229.159C232.674 263.455 235.674 264.083 238.159 265.341C240.659 266.583 242.561 268.348 243.864 270.636C245.182 272.909 245.841 275.583 245.841 278.659C245.841 281.75 245.174 284.409 243.841 286.636C242.508 288.848 240.576 290.545 238.045 291.727C235.53 292.909 232.485 293.5 228.909 293.5H216.614V285.591H227.318C229.197 285.591 230.758 285.333 232 284.818C233.242 284.303 234.167 283.53 234.773 282.5C235.394 281.47 235.705 280.189 235.705 278.659C235.705 277.114 235.394 275.811 234.773 274.75C234.167 273.689 233.235 272.886 231.977 272.341C230.735 271.78 229.167 271.5 227.273 271.5H220.636V310H210.795ZM235.932 288.818L247.5 310H236.636L225.318 288.818H235.932ZM258.273 310.591C256.773 310.591 255.485 310.061 254.409 309C253.348 307.924 252.818 306.636 252.818 305.136C252.818 303.652 253.348 302.379 254.409 301.318C255.485 300.258 256.773 299.727 258.273 299.727C259.727 299.727 261 300.258 262.091 301.318C263.182 302.379 263.727 303.652 263.727 305.136C263.727 306.136 263.47 307.053 262.955 307.886C262.455 308.705 261.795 309.364 260.977 309.864C260.159 310.348 259.258 310.591 258.273 310.591Z" fill="#05E072"/>
<path d="M58.5824 331.909L62.2259 342.571H62.3729L66.0163 331.909H68.1513L63.4403 345H61.1584L56.4474 331.909H58.5824ZM71.6883 345V335.182H73.5995V345H71.6883ZM72.6535 333.667C72.3211 333.667 72.0356 333.556 71.797 333.335C71.5626 333.109 71.4454 332.84 71.4454 332.529C71.4454 332.214 71.5626 331.945 71.797 331.724C72.0356 331.498 72.3211 331.385 72.6535 331.385C72.9859 331.385 73.2693 331.498 73.5037 331.724C73.7423 331.945 73.8616 332.214 73.8616 332.529C73.8616 332.84 73.7423 333.109 73.5037 333.335C73.2693 333.556 72.9859 333.667 72.6535 333.667ZM77.9707 345V335.182H79.818V336.741H79.9203C80.0993 336.213 80.4146 335.798 80.8663 335.495C81.3223 335.188 81.8379 335.035 82.4132 335.035C82.5325 335.035 82.6732 335.039 82.8351 335.048C83.0013 335.056 83.1313 335.067 83.225 335.08V336.908C83.1483 336.886 83.0119 336.863 82.8159 336.837C82.6199 336.808 82.4239 336.793 82.2278 336.793C81.7761 336.793 81.3734 336.888 81.0197 337.08C80.6703 337.268 80.3933 337.53 80.1888 337.866C79.9842 338.199 79.882 338.578 79.882 339.004V345H77.9707ZM91.8421 335.182V336.716H86.4792V335.182H91.8421ZM87.9174 332.83H89.8286V342.117C89.8286 342.488 89.884 342.767 89.9948 342.955C90.1056 343.138 90.2484 343.263 90.4231 343.332C90.6021 343.396 90.796 343.428 91.0048 343.428C91.1582 343.428 91.2924 343.417 91.4075 343.396C91.5225 343.374 91.612 343.357 91.6759 343.344L92.0211 344.923C91.9103 344.966 91.7526 345.009 91.5481 345.051C91.3435 345.098 91.0879 345.124 90.781 345.128C90.2782 345.136 89.8094 345.047 89.3748 344.859C88.9401 344.672 88.5886 344.382 88.3201 343.99C88.0516 343.598 87.9174 343.106 87.9174 342.513V332.83ZM101.976 340.928V335.182H103.893V345H102.014V343.3H101.912C101.686 343.824 101.324 344.261 100.825 344.61C100.331 344.955 99.7151 345.128 98.9779 345.128C98.3472 345.128 97.789 344.989 97.3032 344.712C96.8216 344.431 96.4424 344.016 96.1654 343.466C95.8926 342.916 95.7563 342.237 95.7563 341.427V335.182H97.6675V341.197C97.6675 341.866 97.8529 342.398 98.2236 342.795C98.5944 343.191 99.0759 343.389 99.6682 343.389C100.026 343.389 100.382 343.3 100.736 343.121C101.094 342.942 101.39 342.671 101.624 342.309C101.863 341.947 101.98 341.487 101.976 340.928ZM111.119 345.217C110.496 345.217 109.934 345.102 109.431 344.872C108.928 344.638 108.53 344.299 108.236 343.856C107.946 343.413 107.801 342.869 107.801 342.226C107.801 341.672 107.908 341.216 108.121 340.858C108.334 340.5 108.621 340.217 108.984 340.008C109.346 339.799 109.751 339.641 110.198 339.535C110.646 339.428 111.102 339.347 111.566 339.292C112.154 339.224 112.631 339.168 112.998 339.126C113.364 339.079 113.631 339.004 113.797 338.902C113.963 338.8 114.046 338.634 114.046 338.403V338.359C114.046 337.8 113.888 337.368 113.573 337.061C113.262 336.754 112.798 336.601 112.18 336.601C111.536 336.601 111.029 336.744 110.658 337.029C110.292 337.31 110.038 337.624 109.898 337.969L108.102 337.56C108.315 336.963 108.626 336.482 109.035 336.115C109.448 335.744 109.923 335.476 110.46 335.31C110.997 335.139 111.562 335.054 112.154 335.054C112.546 335.054 112.962 335.101 113.401 335.195C113.844 335.284 114.257 335.45 114.641 335.693C115.028 335.936 115.346 336.283 115.593 336.735C115.84 337.183 115.964 337.764 115.964 338.48V345H114.097V343.658H114.021C113.897 343.905 113.712 344.148 113.464 344.386C113.217 344.625 112.9 344.823 112.512 344.981C112.124 345.138 111.66 345.217 111.119 345.217ZM111.534 343.683C112.063 343.683 112.514 343.579 112.889 343.37C113.268 343.161 113.556 342.888 113.752 342.552C113.952 342.211 114.053 341.847 114.053 341.459V340.193C113.984 340.261 113.852 340.325 113.656 340.385C113.464 340.44 113.245 340.489 112.998 340.532C112.751 340.57 112.51 340.607 112.276 340.641C112.041 340.67 111.845 340.696 111.688 340.717C111.317 340.764 110.978 340.843 110.671 340.954C110.369 341.065 110.126 341.224 109.942 341.433C109.763 341.638 109.674 341.911 109.674 342.251C109.674 342.724 109.849 343.082 110.198 343.325C110.548 343.564 110.993 343.683 111.534 343.683ZM122.221 331.909V345H120.309V331.909H122.221ZM128.503 331.909V345H126.592V331.909H128.503ZM134.082 348.682C133.797 348.682 133.537 348.658 133.303 348.612C133.068 348.569 132.893 348.522 132.778 348.471L133.239 346.905C133.588 346.999 133.899 347.039 134.172 347.026C134.445 347.013 134.685 346.911 134.894 346.719C135.107 346.528 135.295 346.214 135.457 345.78L135.693 345.128L132.101 335.182H134.146L136.633 342.801H136.735L139.222 335.182H141.273L137.227 346.31C137.04 346.822 136.801 347.254 136.511 347.608C136.222 347.966 135.876 348.234 135.476 348.413C135.075 348.592 134.611 348.682 134.082 348.682ZM153.562 331.909V345H151.587V331.909H153.562ZM159.996 339.17V345H158.085V335.182H159.919V336.78H160.041C160.267 336.26 160.62 335.842 161.102 335.527C161.588 335.212 162.199 335.054 162.936 335.054C163.605 335.054 164.191 335.195 164.694 335.476C165.197 335.753 165.587 336.166 165.864 336.716C166.141 337.266 166.279 337.945 166.279 338.755V345H164.368V338.985C164.368 338.273 164.183 337.717 163.812 337.317C163.441 336.912 162.932 336.71 162.284 336.71C161.841 336.71 161.447 336.805 161.102 336.997C160.761 337.189 160.49 337.47 160.29 337.841C160.094 338.207 159.996 338.651 159.996 339.17ZM174.318 345.192C173.525 345.192 172.818 344.989 172.196 344.585C171.578 344.175 171.092 343.594 170.738 342.839C170.389 342.081 170.214 341.171 170.214 340.11C170.214 339.049 170.391 338.141 170.745 337.387C171.103 336.633 171.593 336.055 172.215 335.655C172.837 335.254 173.542 335.054 174.331 335.054C174.94 335.054 175.43 335.156 175.801 335.361C176.176 335.561 176.466 335.795 176.67 336.064C176.879 336.332 177.041 336.569 177.156 336.773H177.271V331.909H179.182V345H177.316V343.472H177.156C177.041 343.681 176.875 343.92 176.658 344.188C176.444 344.457 176.15 344.691 175.775 344.891C175.4 345.092 174.915 345.192 174.318 345.192ZM174.74 343.562C175.29 343.562 175.754 343.417 176.133 343.127C176.517 342.833 176.807 342.426 177.003 341.906C177.203 341.386 177.303 340.781 177.303 340.091C177.303 339.409 177.205 338.812 177.009 338.301C176.813 337.79 176.525 337.391 176.146 337.106C175.767 336.82 175.298 336.678 174.74 336.678C174.165 336.678 173.685 336.827 173.302 337.125C172.918 337.423 172.628 337.83 172.432 338.346C172.241 338.862 172.145 339.443 172.145 340.091C172.145 340.747 172.243 341.337 172.439 341.862C172.635 342.386 172.925 342.801 173.308 343.108C173.696 343.411 174.173 343.562 174.74 343.562ZM183.71 345V335.182H185.621V345H183.71ZM184.675 333.667C184.343 333.667 184.057 333.556 183.819 333.335C183.584 333.109 183.467 332.84 183.467 332.529C183.467 332.214 183.584 331.945 183.819 331.724C184.057 331.498 184.343 331.385 184.675 331.385C185.008 331.385 185.291 331.498 185.526 331.724C185.764 331.945 185.883 332.214 185.883 332.529C185.883 332.84 185.764 333.109 185.526 333.335C185.291 333.556 185.008 333.667 184.675 333.667ZM197.35 337.579L195.618 337.886C195.545 337.664 195.43 337.453 195.272 337.253C195.119 337.053 194.91 336.888 194.646 336.761C194.382 336.633 194.052 336.569 193.655 336.569C193.114 336.569 192.662 336.69 192.3 336.933C191.938 337.172 191.757 337.481 191.757 337.86C191.757 338.188 191.878 338.452 192.121 338.653C192.364 338.853 192.756 339.017 193.297 339.145L194.857 339.503C195.76 339.712 196.434 340.033 196.877 340.468C197.32 340.903 197.542 341.467 197.542 342.162C197.542 342.75 197.371 343.274 197.03 343.734C196.694 344.19 196.223 344.548 195.618 344.808C195.017 345.068 194.32 345.198 193.527 345.198C192.428 345.198 191.531 344.964 190.836 344.495C190.142 344.022 189.716 343.351 189.558 342.482L191.405 342.2C191.52 342.682 191.757 343.046 192.115 343.293C192.473 343.536 192.939 343.658 193.515 343.658C194.141 343.658 194.642 343.528 195.017 343.268C195.392 343.004 195.579 342.682 195.579 342.303C195.579 341.996 195.464 341.738 195.234 341.529C195.008 341.32 194.661 341.163 194.192 341.056L192.53 340.692C191.614 340.483 190.937 340.151 190.498 339.695C190.063 339.239 189.846 338.661 189.846 337.962C189.846 337.383 190.008 336.876 190.331 336.441C190.655 336.006 191.103 335.668 191.674 335.425C192.245 335.178 192.899 335.054 193.636 335.054C194.697 335.054 195.532 335.284 196.142 335.744C196.751 336.2 197.154 336.812 197.35 337.579ZM206.026 335.182V336.716H200.663V335.182H206.026ZM202.101 332.83H204.013V342.117C204.013 342.488 204.068 342.767 204.179 342.955C204.29 343.138 204.432 343.263 204.607 343.332C204.786 343.396 204.98 343.428 205.189 343.428C205.342 343.428 205.476 343.417 205.591 343.396C205.706 343.374 205.796 343.357 205.86 343.344L206.205 344.923C206.094 344.966 205.937 345.009 205.732 345.051C205.528 345.098 205.272 345.124 204.965 345.128C204.462 345.136 203.993 345.047 203.559 344.859C203.124 344.672 202.773 344.382 202.504 343.99C202.236 343.598 202.101 343.106 202.101 342.513V332.83ZM209.94 345V335.182H211.851V345H209.94ZM210.905 333.667C210.573 333.667 210.288 333.556 210.049 333.335C209.815 333.109 209.697 332.84 209.697 332.529C209.697 332.214 209.815 331.945 210.049 331.724C210.288 331.498 210.573 331.385 210.905 331.385C211.238 331.385 211.521 331.498 211.756 331.724C211.994 331.945 212.114 332.214 212.114 332.529C212.114 332.84 211.994 333.109 211.756 333.335C211.521 333.556 211.238 333.667 210.905 333.667ZM218.134 339.17V345H216.223V335.182H218.057V336.78H218.179C218.405 336.26 218.758 335.842 219.24 335.527C219.726 335.212 220.337 335.054 221.074 335.054C221.743 335.054 222.329 335.195 222.832 335.476C223.335 335.753 223.725 336.166 224.002 336.716C224.279 337.266 224.417 337.945 224.417 338.755V345H222.506V338.985C222.506 338.273 222.321 337.717 221.95 337.317C221.579 336.912 221.07 336.71 220.422 336.71C219.979 336.71 219.585 336.805 219.24 336.997C218.899 337.189 218.628 337.47 218.428 337.841C218.232 338.207 218.134 338.651 218.134 339.17ZM232.897 348.886C232.117 348.886 231.446 348.784 230.883 348.58C230.325 348.375 229.869 348.104 229.516 347.768C229.162 347.431 228.898 347.063 228.723 346.662L230.366 345.984C230.481 346.172 230.634 346.37 230.826 346.579C231.022 346.792 231.286 346.973 231.619 347.122C231.955 347.271 232.388 347.346 232.916 347.346C233.641 347.346 234.239 347.169 234.712 346.815C235.185 346.466 235.422 345.908 235.422 345.141V343.21H235.3C235.185 343.419 235.019 343.651 234.802 343.907C234.589 344.163 234.295 344.384 233.92 344.572C233.545 344.759 233.057 344.853 232.456 344.853C231.68 344.853 230.981 344.672 230.359 344.31C229.741 343.943 229.251 343.404 228.889 342.692C228.531 341.977 228.352 341.097 228.352 340.053C228.352 339.009 228.529 338.114 228.883 337.368C229.241 336.622 229.731 336.051 230.353 335.655C230.975 335.254 231.68 335.054 232.469 335.054C233.078 335.054 233.57 335.156 233.945 335.361C234.32 335.561 234.612 335.795 234.821 336.064C235.034 336.332 235.198 336.569 235.313 336.773H235.454V335.182H237.327V345.217C237.327 346.061 237.131 346.754 236.739 347.295C236.347 347.836 235.816 348.237 235.147 348.496C234.482 348.756 233.732 348.886 232.897 348.886ZM232.878 343.268C233.428 343.268 233.892 343.14 234.271 342.884C234.655 342.624 234.945 342.254 235.141 341.772C235.341 341.286 235.441 340.705 235.441 340.027C235.441 339.366 235.343 338.785 235.147 338.282C234.951 337.779 234.663 337.387 234.284 337.106C233.905 336.82 233.436 336.678 232.878 336.678C232.303 336.678 231.823 336.827 231.44 337.125C231.056 337.419 230.766 337.82 230.57 338.327C230.379 338.834 230.283 339.401 230.283 340.027C230.283 340.67 230.381 341.235 230.577 341.721C230.773 342.207 231.062 342.586 231.446 342.859C231.834 343.131 232.311 343.268 232.878 343.268ZM247.909 340.928V335.182H249.827V345H247.948V343.3H247.845C247.62 343.824 247.257 344.261 246.759 344.61C246.264 344.955 245.649 345.128 244.911 345.128C244.281 345.128 243.723 344.989 243.237 344.712C242.755 344.431 242.376 344.016 242.099 343.466C241.826 342.916 241.69 342.237 241.69 341.427V335.182H243.601V341.197C243.601 341.866 243.786 342.398 244.157 342.795C244.528 343.191 245.009 343.389 245.602 343.389C245.96 343.389 246.316 343.3 246.669 343.121C247.027 342.942 247.323 342.671 247.558 342.309C247.796 341.947 247.914 341.487 247.909 340.928ZM254.195 345V335.182H256.106V345H254.195ZM255.16 333.667C254.828 333.667 254.542 333.556 254.304 333.335C254.069 333.109 253.952 332.84 253.952 332.529C253.952 332.214 254.069 331.945 254.304 331.724C254.542 331.498 254.828 331.385 255.16 331.385C255.493 331.385 255.776 331.498 256.01 331.724C256.249 331.945 256.368 332.214 256.368 332.529C256.368 332.84 256.249 333.109 256.01 333.335C255.776 333.556 255.493 333.667 255.16 333.667ZM267.835 337.579L266.102 337.886C266.03 337.664 265.915 337.453 265.757 337.253C265.604 337.053 265.395 336.888 265.131 336.761C264.867 336.633 264.536 336.569 264.14 336.569C263.599 336.569 263.147 336.69 262.785 336.933C262.423 337.172 262.242 337.481 262.242 337.86C262.242 338.188 262.363 338.452 262.606 338.653C262.849 338.853 263.241 339.017 263.782 339.145L265.342 339.503C266.245 339.712 266.918 340.033 267.362 340.468C267.805 340.903 268.026 341.467 268.026 342.162C268.026 342.75 267.856 343.274 267.515 343.734C267.178 344.19 266.707 344.548 266.102 344.808C265.502 345.068 264.805 345.198 264.012 345.198C262.913 345.198 262.016 344.964 261.321 344.495C260.627 344.022 260.2 343.351 260.043 342.482L261.89 342.2C262.005 342.682 262.242 343.046 262.6 343.293C262.957 343.536 263.424 343.658 263.999 343.658C264.626 343.658 265.127 343.528 265.502 343.268C265.877 343.004 266.064 342.682 266.064 342.303C266.064 341.996 265.949 341.738 265.719 341.529C265.493 341.32 265.146 341.163 264.677 341.056L263.015 340.692C262.099 340.483 261.421 340.151 260.982 339.695C260.548 339.239 260.33 338.661 260.33 337.962C260.33 337.383 260.492 336.876 260.816 336.441C261.14 336.006 261.587 335.668 262.158 335.425C262.73 335.178 263.384 335.054 264.121 335.054C265.182 335.054 266.017 335.284 266.627 335.744C267.236 336.2 267.639 336.812 267.835 337.579ZM273.839 339.17V345H271.928V331.909H273.813V336.78H273.935C274.165 336.251 274.517 335.832 274.99 335.521C275.463 335.21 276.08 335.054 276.843 335.054C277.517 335.054 278.105 335.192 278.607 335.469C279.115 335.746 279.507 336.16 279.784 336.71C280.065 337.255 280.205 337.937 280.205 338.755V345H278.294V338.985C278.294 338.265 278.109 337.707 277.738 337.31C277.367 336.91 276.852 336.71 276.191 336.71C275.74 336.71 275.335 336.805 274.977 336.997C274.623 337.189 274.344 337.47 274.139 337.841C273.939 338.207 273.839 338.651 273.839 339.17ZM287.413 345.217C286.791 345.217 286.228 345.102 285.726 344.872C285.223 344.638 284.824 344.299 284.53 343.856C284.241 343.413 284.096 342.869 284.096 342.226C284.096 341.672 284.202 341.216 284.415 340.858C284.628 340.5 284.916 340.217 285.278 340.008C285.64 339.799 286.045 339.641 286.493 339.535C286.94 339.428 287.396 339.347 287.861 339.292C288.449 339.224 288.926 339.168 289.292 339.126C289.659 339.079 289.925 339.004 290.091 338.902C290.258 338.8 290.341 338.634 290.341 338.403V338.359C290.341 337.8 290.183 337.368 289.868 337.061C289.557 336.754 289.092 336.601 288.474 336.601C287.831 336.601 287.324 336.744 286.953 337.029C286.586 337.31 286.333 337.624 286.192 337.969L284.396 337.56C284.609 336.963 284.92 336.482 285.329 336.115C285.743 335.744 286.218 335.476 286.755 335.31C287.292 335.139 287.856 335.054 288.449 335.054C288.841 335.054 289.256 335.101 289.695 335.195C290.138 335.284 290.552 335.45 290.935 335.693C291.323 335.936 291.64 336.283 291.888 336.735C292.135 337.183 292.258 337.764 292.258 338.48V345H290.392V343.658H290.315C290.192 343.905 290.006 344.148 289.759 344.386C289.512 344.625 289.194 344.823 288.807 344.981C288.419 345.138 287.954 345.217 287.413 345.217ZM287.829 343.683C288.357 343.683 288.809 343.579 289.184 343.37C289.563 343.161 289.851 342.888 290.047 342.552C290.247 342.211 290.347 341.847 290.347 341.459V340.193C290.279 340.261 290.147 340.325 289.951 340.385C289.759 340.44 289.54 340.489 289.292 340.532C289.045 340.57 288.804 340.607 288.57 340.641C288.336 340.67 288.14 340.696 287.982 340.717C287.611 340.764 287.273 340.843 286.966 340.954C286.663 341.065 286.42 341.224 286.237 341.433C286.058 341.638 285.969 341.911 285.969 342.251C285.969 342.724 286.143 343.082 286.493 343.325C286.842 343.564 287.287 343.683 287.829 343.683ZM296.757 345V331.909H298.669V336.773H298.784C298.894 336.569 299.054 336.332 299.263 336.064C299.472 335.795 299.762 335.561 300.132 335.361C300.503 335.156 300.993 335.054 301.603 335.054C302.395 335.054 303.103 335.254 303.725 335.655C304.347 336.055 304.835 336.633 305.188 337.387C305.546 338.141 305.725 339.049 305.725 340.11C305.725 341.171 305.549 342.081 305.195 342.839C304.841 343.594 304.355 344.175 303.737 344.585C303.12 344.989 302.414 345.192 301.622 345.192C301.025 345.192 300.537 345.092 300.158 344.891C299.783 344.691 299.489 344.457 299.276 344.188C299.063 343.92 298.899 343.681 298.784 343.472H298.624V345H296.757ZM298.63 340.091C298.63 340.781 298.73 341.386 298.931 341.906C299.131 342.426 299.421 342.833 299.8 343.127C300.179 343.417 300.644 343.562 301.193 343.562C301.764 343.562 302.242 343.411 302.625 343.108C303.009 342.801 303.299 342.386 303.495 341.862C303.695 341.337 303.795 340.747 303.795 340.091C303.795 339.443 303.697 338.862 303.501 338.346C303.309 337.83 303.019 337.423 302.632 337.125C302.248 336.827 301.769 336.678 301.193 336.678C300.639 336.678 300.171 336.82 299.787 337.106C299.408 337.391 299.12 337.79 298.924 338.301C298.728 338.812 298.63 339.409 298.63 340.091ZM311.583 331.909V345H309.672V331.909H311.583ZM320.185 345.198C319.218 345.198 318.385 344.991 317.686 344.578C316.992 344.161 316.455 343.575 316.075 342.82C315.7 342.062 315.513 341.173 315.513 340.155C315.513 339.149 315.7 338.263 316.075 337.496C316.455 336.729 316.983 336.13 317.661 335.7C318.342 335.269 319.139 335.054 320.051 335.054C320.605 335.054 321.142 335.146 321.662 335.329C322.182 335.512 322.649 335.8 323.062 336.192C323.475 336.584 323.801 337.093 324.04 337.719C324.279 338.342 324.398 339.098 324.398 339.989V340.666H316.593V339.234H322.525C322.525 338.732 322.423 338.286 322.218 337.898C322.014 337.506 321.726 337.197 321.355 336.972C320.989 336.746 320.558 336.633 320.064 336.633C319.527 336.633 319.058 336.765 318.658 337.029C318.261 337.289 317.955 337.63 317.737 338.052C317.524 338.469 317.418 338.923 317.418 339.413V340.532C317.418 341.188 317.533 341.746 317.763 342.207C317.997 342.667 318.323 343.018 318.741 343.261C319.158 343.5 319.646 343.619 320.205 343.619C320.567 343.619 320.897 343.568 321.195 343.466C321.494 343.359 321.752 343.202 321.969 342.993C322.186 342.784 322.352 342.526 322.467 342.219L324.276 342.545C324.131 343.078 323.872 343.545 323.497 343.945C323.126 344.342 322.659 344.651 322.097 344.872C321.538 345.089 320.901 345.198 320.185 345.198ZM64.5781 359.348C64.5099 358.743 64.2287 358.274 63.7344 357.942C63.2401 357.605 62.6179 357.437 61.8679 357.437C61.331 357.437 60.8665 357.522 60.4744 357.692C60.0824 357.859 59.7777 358.089 59.5604 358.383C59.3473 358.673 59.2408 359.003 59.2408 359.374C59.2408 359.685 59.3132 359.953 59.4581 360.179C59.6072 360.405 59.8011 360.594 60.0398 360.748C60.2827 360.897 60.5426 361.023 60.8196 361.125C61.0966 361.223 61.3629 361.304 61.6186 361.368L62.897 361.7C63.3146 361.803 63.7429 361.941 64.1818 362.116C64.6207 362.29 65.0277 362.521 65.4027 362.806C65.7777 363.092 66.0803 363.445 66.3104 363.867C66.5447 364.289 66.6619 364.794 66.6619 365.382C66.6619 366.124 66.4702 366.782 66.0866 367.357C65.7074 367.933 65.1555 368.386 64.4311 368.719C63.7109 369.051 62.8395 369.217 61.8168 369.217C60.8366 369.217 59.9886 369.062 59.2727 368.751C58.5568 368.44 57.9964 367.999 57.5916 367.428C57.1868 366.852 56.9631 366.17 56.9205 365.382H58.902C58.9403 365.855 59.0938 366.249 59.3622 366.565C59.6349 366.876 59.9822 367.108 60.4041 367.261C60.8303 367.411 61.2969 367.485 61.804 367.485C62.3622 367.485 62.8587 367.398 63.2933 367.223C63.7322 367.044 64.0774 366.797 64.3288 366.482C64.5803 366.162 64.706 365.789 64.706 365.363C64.706 364.975 64.5952 364.658 64.3736 364.411C64.1563 364.163 63.8601 363.959 63.4851 363.797C63.1143 363.635 62.6946 363.492 62.2259 363.369L60.679 362.947C59.6307 362.661 58.7997 362.241 58.1861 361.688C57.5767 361.134 57.272 360.401 57.272 359.489C57.272 358.734 57.4766 358.076 57.8857 357.513C58.2947 356.951 58.8487 356.514 59.5476 356.203C60.2464 355.888 61.0348 355.73 61.9126 355.73C62.799 355.73 63.581 355.886 64.2585 356.197C64.9403 356.508 65.4773 356.936 65.8693 357.482C66.2614 358.023 66.4659 358.645 66.483 359.348H64.5781ZM74.9003 369.198C73.933 369.198 73.0999 368.991 72.401 368.578C71.7064 368.161 71.1695 367.575 70.7902 366.82C70.4152 366.062 70.2277 365.173 70.2277 364.155C70.2277 363.149 70.4152 362.263 70.7902 361.496C71.1695 360.729 71.6979 360.13 72.3755 359.7C73.0573 359.269 73.8542 359.054 74.7661 359.054C75.3201 359.054 75.857 359.146 76.3769 359.329C76.8968 359.512 77.3634 359.8 77.7767 360.192C78.1901 360.584 78.5161 361.093 78.7547 361.719C78.9934 362.342 79.1127 363.098 79.1127 363.989V364.666H71.308V363.234H77.2398C77.2398 362.732 77.1375 362.286 76.933 361.898C76.7284 361.506 76.4408 361.197 76.0701 360.972C75.7036 360.746 75.2732 360.633 74.7789 360.633C74.2419 360.633 73.7732 360.765 73.3726 361.029C72.9763 361.289 72.6695 361.63 72.4522 362.052C72.2391 362.469 72.1326 362.923 72.1326 363.413V364.532C72.1326 365.188 72.2476 365.746 72.4777 366.207C72.7121 366.667 73.0381 367.018 73.4557 367.261C73.8733 367.5 74.3613 367.619 74.9195 367.619C75.2817 367.619 75.612 367.568 75.9103 367.466C76.2086 367.359 76.4664 367.202 76.6837 366.993C76.901 366.784 77.0672 366.526 77.1823 366.219L78.9912 366.545C78.8463 367.078 78.5864 367.545 78.2114 367.945C77.8407 368.342 77.374 368.651 76.8115 368.872C76.2533 369.089 75.6162 369.198 74.9003 369.198ZM84.9445 363.17V369H83.0332V359.182H84.8678V360.78H84.9892C85.2151 360.26 85.5688 359.842 86.0503 359.527C86.5361 359.212 87.1476 359.054 87.8848 359.054C88.5538 359.054 89.1398 359.195 89.6426 359.476C90.1455 359.753 90.5354 360.166 90.8124 360.716C91.0893 361.266 91.2278 361.945 91.2278 362.755V369H89.3166V362.985C89.3166 362.273 89.1313 361.717 88.7605 361.317C88.3898 360.912 87.8805 360.71 87.2328 360.71C86.7896 360.71 86.3955 360.805 86.0503 360.997C85.7094 361.189 85.4388 361.47 85.2385 361.841C85.0425 362.207 84.9445 362.651 84.9445 363.17ZM102.948 361.579L101.216 361.886C101.144 361.664 101.029 361.453 100.871 361.253C100.717 361.053 100.509 360.888 100.244 360.761C99.9803 360.633 99.65 360.569 99.2537 360.569C98.7125 360.569 98.2608 360.69 97.8986 360.933C97.5364 361.172 97.3553 361.481 97.3553 361.86C97.3553 362.188 97.4767 362.452 97.7196 362.653C97.9625 362.853 98.3545 363.017 98.8957 363.145L100.455 363.503C101.359 363.712 102.032 364.033 102.475 364.468C102.918 364.903 103.14 365.467 103.14 366.162C103.14 366.75 102.97 367.274 102.629 367.734C102.292 368.19 101.821 368.548 101.216 368.808C100.615 369.068 99.9185 369.198 99.1259 369.198C98.0264 369.198 97.1294 368.964 96.4348 368.495C95.7402 368.022 95.3141 367.351 95.1564 366.482L97.0037 366.2C97.1188 366.682 97.3553 367.046 97.7132 367.293C98.0712 367.536 98.5378 367.658 99.1131 367.658C99.7395 367.658 100.24 367.528 100.615 367.268C100.99 367.004 101.178 366.682 101.178 366.303C101.178 365.996 101.063 365.738 100.833 365.529C100.607 365.32 100.259 365.163 99.7906 365.056L98.1287 364.692C97.2125 364.483 96.5349 364.151 96.096 363.695C95.6614 363.239 95.444 362.661 95.444 361.962C95.444 361.383 95.606 360.876 95.9298 360.441C96.2537 360.006 96.7011 359.668 97.2722 359.425C97.8432 359.178 98.4973 359.054 99.2345 359.054C100.296 359.054 101.131 359.284 101.74 359.744C102.35 360.2 102.752 360.812 102.948 361.579ZM111.177 369.198C110.257 369.198 109.453 368.987 108.767 368.565C108.081 368.143 107.549 367.553 107.169 366.795C106.79 366.036 106.6 365.15 106.6 364.136C106.6 363.117 106.79 362.227 107.169 361.464C107.549 360.701 108.081 360.109 108.767 359.687C109.453 359.265 110.257 359.054 111.177 359.054C112.098 359.054 112.901 359.265 113.587 359.687C114.273 360.109 114.806 360.701 115.185 361.464C115.564 362.227 115.754 363.117 115.754 364.136C115.754 365.15 115.564 366.036 115.185 366.795C114.806 367.553 114.273 368.143 113.587 368.565C112.901 368.987 112.098 369.198 111.177 369.198ZM111.183 367.594C111.78 367.594 112.274 367.436 112.666 367.121C113.058 366.805 113.348 366.386 113.536 365.862C113.728 365.337 113.823 364.76 113.823 364.129C113.823 363.503 113.728 362.928 113.536 362.403C113.348 361.875 113.058 361.451 112.666 361.131C112.274 360.812 111.78 360.652 111.183 360.652C110.583 360.652 110.084 360.812 109.688 361.131C109.296 361.451 109.004 361.875 108.812 362.403C108.625 362.928 108.531 363.503 108.531 364.129C108.531 364.76 108.625 365.337 108.812 365.862C109.004 366.386 109.296 366.805 109.688 367.121C110.084 367.436 110.583 367.594 111.183 367.594ZM119.687 369V359.182H121.534V360.741H121.637C121.816 360.213 122.131 359.798 122.583 359.495C123.039 359.188 123.554 359.035 124.13 359.035C124.249 359.035 124.39 359.039 124.551 359.048C124.718 359.056 124.848 359.067 124.941 359.08V360.908C124.865 360.886 124.728 360.863 124.532 360.837C124.336 360.808 124.14 360.793 123.944 360.793C123.493 360.793 123.09 360.888 122.736 361.08C122.387 361.268 122.11 361.53 121.905 361.866C121.701 362.199 121.598 362.578 121.598 363.004V369H119.687ZM129.902 372.682C129.617 372.682 129.357 372.658 129.122 372.612C128.888 372.569 128.713 372.522 128.598 372.471L129.059 370.905C129.408 370.999 129.719 371.039 129.992 371.026C130.264 371.013 130.505 370.911 130.714 370.719C130.927 370.528 131.115 370.214 131.277 369.78L131.513 369.128L127.921 359.182H129.966L132.453 366.801H132.555L135.041 359.182H137.093L133.047 370.31C132.86 370.822 132.621 371.254 132.331 371.608C132.041 371.966 131.696 372.234 131.296 372.413C130.895 372.592 130.431 372.682 129.902 372.682ZM147.407 369V355.909H152.073C153.087 355.909 153.929 356.084 154.598 356.433C155.271 356.783 155.774 357.266 156.106 357.884C156.439 358.498 156.605 359.207 156.605 360.013C156.605 360.814 156.436 361.519 156.1 362.129C155.767 362.734 155.265 363.205 154.591 363.541C153.922 363.878 153.081 364.046 152.066 364.046H148.532V362.346H151.887C152.527 362.346 153.046 362.254 153.447 362.071C153.852 361.888 154.148 361.621 154.336 361.272C154.523 360.923 154.617 360.503 154.617 360.013C154.617 359.518 154.521 359.09 154.329 358.728C154.142 358.366 153.845 358.089 153.441 357.897C153.04 357.701 152.514 357.603 151.862 357.603H149.382V369H147.407ZM153.869 363.094L157.103 369H154.853L151.683 363.094H153.869ZM164.763 369.198C163.796 369.198 162.963 368.991 162.264 368.578C161.569 368.161 161.032 367.575 160.653 366.82C160.278 366.062 160.091 365.173 160.091 364.155C160.091 363.149 160.278 362.263 160.653 361.496C161.032 360.729 161.561 360.13 162.238 359.7C162.92 359.269 163.717 359.054 164.629 359.054C165.183 359.054 165.72 359.146 166.24 359.329C166.76 359.512 167.226 359.8 167.64 360.192C168.053 360.584 168.379 361.093 168.618 361.719C168.856 362.342 168.976 363.098 168.976 363.989V364.666H161.171V363.234H167.103C167.103 362.732 167 362.286 166.796 361.898C166.591 361.506 166.304 361.197 165.933 360.972C165.566 360.746 165.136 360.633 164.642 360.633C164.105 360.633 163.636 360.765 163.236 361.029C162.839 361.289 162.532 361.63 162.315 362.052C162.102 362.469 161.995 362.923 161.995 363.413V364.532C161.995 365.188 162.111 365.746 162.341 366.207C162.575 366.667 162.901 367.018 163.319 367.261C163.736 367.5 164.224 367.619 164.782 367.619C165.145 367.619 165.475 367.568 165.773 367.466C166.071 367.359 166.329 367.202 166.547 366.993C166.764 366.784 166.93 366.526 167.045 366.219L168.854 366.545C168.709 367.078 168.449 367.545 168.074 367.945C167.704 368.342 167.237 368.651 166.674 368.872C166.116 369.089 165.479 369.198 164.763 369.198ZM174.807 355.909V369H172.896V355.909H174.807ZM182.036 369.217C181.414 369.217 180.851 369.102 180.348 368.872C179.845 368.638 179.447 368.299 179.153 367.856C178.863 367.413 178.718 366.869 178.718 366.226C178.718 365.672 178.825 365.216 179.038 364.858C179.251 364.5 179.539 364.217 179.901 364.008C180.263 363.799 180.668 363.641 181.115 363.535C181.563 363.428 182.019 363.347 182.483 363.292C183.071 363.224 183.549 363.168 183.915 363.126C184.282 363.079 184.548 363.004 184.714 362.902C184.88 362.8 184.963 362.634 184.963 362.403V362.359C184.963 361.8 184.806 361.368 184.49 361.061C184.179 360.754 183.715 360.601 183.097 360.601C182.453 360.601 181.946 360.744 181.576 361.029C181.209 361.31 180.956 361.624 180.815 361.969L179.019 361.56C179.232 360.963 179.543 360.482 179.952 360.115C180.365 359.744 180.84 359.476 181.377 359.31C181.914 359.139 182.479 359.054 183.071 359.054C183.463 359.054 183.879 359.101 184.318 359.195C184.761 359.284 185.174 359.45 185.558 359.693C185.946 359.936 186.263 360.283 186.51 360.735C186.757 361.183 186.881 361.764 186.881 362.48V369H185.014V367.658H184.938C184.814 367.905 184.629 368.148 184.382 368.386C184.135 368.625 183.817 368.823 183.429 368.981C183.041 369.138 182.577 369.217 182.036 369.217ZM182.451 367.683C182.98 367.683 183.431 367.579 183.806 367.37C184.186 367.161 184.473 366.888 184.669 366.552C184.87 366.211 184.97 365.847 184.97 365.459V364.193C184.902 364.261 184.769 364.325 184.573 364.385C184.382 364.44 184.162 364.489 183.915 364.532C183.668 364.57 183.427 364.607 183.193 364.641C182.958 364.67 182.762 364.696 182.605 364.717C182.234 364.764 181.895 364.843 181.588 364.954C181.286 365.065 181.043 365.224 180.86 365.433C180.681 365.638 180.591 365.911 180.591 366.251C180.591 366.724 180.766 367.082 181.115 367.325C181.465 367.564 181.91 367.683 182.451 367.683ZM192.083 372.682C191.798 372.682 191.538 372.658 191.303 372.612C191.069 372.569 190.894 372.522 190.779 372.471L191.239 370.905C191.589 370.999 191.9 371.039 192.173 371.026C192.445 371.013 192.686 370.911 192.895 370.719C193.108 370.528 193.295 370.214 193.457 369.78L193.694 369.128L190.102 359.182H192.147L194.634 366.801H194.736L197.222 359.182H199.274L195.228 370.31C195.041 370.822 194.802 371.254 194.512 371.608C194.222 371.966 193.877 372.234 193.477 372.413C193.076 372.592 192.612 372.682 192.083 372.682Z" fill="#FAFAFA"/>
<rect x="48" y="562" width="279" height="61" rx="8" fill="black" fill-opacity="0.75"/>
<rect x="48.5" y="562.5" width="278" height="60" rx="7.5" stroke="#7EFFBE" stroke-opacity="0.75"/>
<path d="M125.559 583.545V601H121.869V583.545H125.559ZM143.195 583.545V601H140.007L132.413 590.014H132.286V601H128.595V583.545H131.834L139.368 594.523H139.521V583.545H143.195ZM149.934 583.545V601H146.244V583.545H149.934ZM152.305 586.588V583.545H166.641V586.588H161.297V601H157.649V586.588H152.305ZM172.692 583.545V601H169.001V583.545H172.692ZM178.737 601H174.782L180.808 583.545H185.563L191.58 601H187.626L183.254 587.534H183.117L178.737 601ZM178.489 594.139H187.83V597.02H178.489V594.139ZM193.681 601V583.545H197.371V597.957H204.854V601H193.681ZM210.989 583.545V601H207.298V583.545H210.989ZM213.837 601V598.81L222.548 586.588H213.82V583.545H227.184V585.736L218.465 597.957H227.201V601H213.837ZM230.033 601V583.545H241.794V586.588H233.723V590.747H241.189V593.79H233.723V597.957H241.828V601H230.033ZM254.657 601V603.753H243.194V601H254.657Z" fill="#7EFFBE"/>
<path d="M138.064 665.565C137.996 664.878 137.703 664.344 137.186 663.963C136.669 663.582 135.967 663.392 135.081 663.392C134.479 663.392 133.97 663.477 133.555 663.648C133.141 663.812 132.822 664.043 132.601 664.338C132.385 664.634 132.277 664.969 132.277 665.344C132.266 665.656 132.331 665.929 132.473 666.162C132.621 666.395 132.822 666.597 133.078 666.767C133.334 666.932 133.629 667.077 133.964 667.202C134.3 667.321 134.658 667.423 135.038 667.509L136.607 667.884C137.368 668.054 138.067 668.281 138.703 668.565C139.339 668.849 139.891 669.199 140.357 669.614C140.822 670.028 141.183 670.517 141.439 671.08C141.7 671.642 141.834 672.287 141.839 673.014C141.834 674.082 141.561 675.009 141.021 675.793C140.487 676.571 139.714 677.176 138.703 677.608C137.697 678.034 136.484 678.247 135.064 678.247C133.655 678.247 132.428 678.031 131.382 677.599C130.342 677.168 129.53 676.528 128.945 675.682C128.365 674.83 128.061 673.776 128.033 672.52H131.604C131.643 673.105 131.811 673.594 132.107 673.986C132.408 674.372 132.808 674.665 133.308 674.864C133.814 675.057 134.385 675.153 135.021 675.153C135.646 675.153 136.189 675.062 136.649 674.881C137.115 674.699 137.476 674.446 137.732 674.122C137.987 673.798 138.115 673.426 138.115 673.006C138.115 672.614 137.999 672.284 137.766 672.017C137.538 671.75 137.203 671.523 136.76 671.335C136.322 671.148 135.786 670.977 135.149 670.824L133.249 670.347C131.777 669.989 130.615 669.429 129.763 668.668C128.911 667.906 128.487 666.881 128.493 665.591C128.487 664.534 128.768 663.611 129.337 662.821C129.911 662.031 130.697 661.415 131.697 660.972C132.697 660.528 133.834 660.307 135.107 660.307C136.402 660.307 137.533 660.528 138.499 660.972C139.47 661.415 140.226 662.031 140.766 662.821C141.305 663.611 141.584 664.526 141.601 665.565H138.064ZM144.322 678V660.545H156.083V663.588H148.012V667.747H155.478V670.79H148.012V674.957H156.117V678H144.322ZM158.352 663.588V660.545H172.688V663.588H167.344V678H163.696V663.588H158.352ZM174.384 663.588V660.545H188.719V663.588H183.375V678H179.727V663.588H174.384ZM194.77 660.545V678H191.08V660.545H194.77ZM212.406 660.545V678H209.218L201.624 667.014H201.496V678H197.806V660.545H201.045L208.579 671.523H208.732V660.545H212.406ZM227.028 666.188C226.909 665.773 226.741 665.406 226.526 665.088C226.31 664.764 226.045 664.491 225.733 664.27C225.426 664.043 225.074 663.869 224.676 663.75C224.284 663.631 223.849 663.571 223.372 663.571C222.48 663.571 221.696 663.793 221.02 664.236C220.349 664.679 219.827 665.324 219.452 666.17C219.077 667.011 218.889 668.04 218.889 669.256C218.889 670.472 219.074 671.506 219.443 672.358C219.813 673.21 220.335 673.861 221.011 674.31C221.688 674.753 222.486 674.974 223.406 674.974C224.241 674.974 224.955 674.827 225.545 674.531C226.142 674.23 226.597 673.807 226.909 673.261C227.227 672.716 227.386 672.071 227.386 671.327L228.136 671.438H223.636V668.659H230.94V670.858C230.94 672.392 230.616 673.71 229.969 674.812C229.321 675.909 228.429 676.756 227.293 677.352C226.156 677.943 224.855 678.239 223.389 678.239C221.753 678.239 220.315 677.878 219.077 677.156C217.838 676.429 216.872 675.398 216.179 674.062C215.491 672.722 215.148 671.131 215.148 669.29C215.148 667.875 215.352 666.614 215.761 665.506C216.176 664.392 216.756 663.449 217.5 662.676C218.244 661.903 219.111 661.315 220.099 660.912C221.088 660.509 222.159 660.307 223.312 660.307C224.301 660.307 225.222 660.452 226.074 660.741C226.926 661.026 227.682 661.429 228.341 661.952C229.006 662.474 229.548 663.097 229.969 663.818C230.389 664.534 230.659 665.324 230.778 666.188H227.028ZM243.181 665.565C243.113 664.878 242.82 664.344 242.303 663.963C241.786 663.582 241.085 663.392 240.198 663.392C239.596 663.392 239.087 663.477 238.673 663.648C238.258 663.812 237.94 664.043 237.718 664.338C237.502 664.634 237.394 664.969 237.394 665.344C237.383 665.656 237.448 665.929 237.59 666.162C237.738 666.395 237.94 666.597 238.195 666.767C238.451 666.932 238.746 667.077 239.082 667.202C239.417 667.321 239.775 667.423 240.156 667.509L241.724 667.884C242.485 668.054 243.184 668.281 243.82 668.565C244.457 668.849 245.008 669.199 245.474 669.614C245.94 670.028 246.3 670.517 246.556 671.08C246.817 671.642 246.951 672.287 246.957 673.014C246.951 674.082 246.678 675.009 246.138 675.793C245.604 676.571 244.832 677.176 243.82 677.608C242.815 678.034 241.602 678.247 240.181 678.247C238.772 678.247 237.545 678.031 236.499 677.599C235.46 677.168 234.647 676.528 234.062 675.682C233.482 674.83 233.178 673.776 233.15 672.52H236.721C236.761 673.105 236.928 673.594 237.224 673.986C237.525 674.372 237.925 674.665 238.425 674.864C238.931 675.057 239.502 675.153 240.138 675.153C240.763 675.153 241.306 675.062 241.766 674.881C242.232 674.699 242.593 674.446 242.849 674.122C243.104 673.798 243.232 673.426 243.232 673.006C243.232 672.614 243.116 672.284 242.883 672.017C242.656 671.75 242.32 671.523 241.877 671.335C241.44 671.148 240.903 670.977 240.266 670.824L238.366 670.347C236.894 669.989 235.732 669.429 234.88 668.668C234.028 667.906 233.604 666.881 233.61 665.591C233.604 664.534 233.886 663.611 234.454 662.821C235.028 662.031 235.815 661.415 236.815 660.972C237.815 660.528 238.951 660.307 240.224 660.307C241.519 660.307 242.65 660.528 243.616 660.972C244.587 661.415 245.343 662.031 245.883 662.821C246.423 663.611 246.701 664.526 246.718 665.565H243.181Z" fill="#7EFFBE"/>
<defs>
<pattern id="pattern0_12_163" patternUnits="userSpaceOnUse" patternTransform="matrix(32 0 0 4 0 0)" preserveAspectRatio="none" viewBox="0 0 32 4" width="1" height="1">
<g id="pattern0_12_163_inner">
<rect width="32" height="1" fill="#000B05"/>
<rect y="1" width="32" height="1" fill="#000B05"/>
<rect y="2" width="32" height="1" fill="#00240B"/>
<rect y="3" width="32" height="1" fill="#00240B"/>
</g>
</pattern></defs>
</svg>
